<svg width="60" height="59" viewBox="0 0 60 59" fill="none" xmlns="http://www.w3.org/2000/svg">
<path d="M29.9884 58.1C24.4151 58.1 19.3917 56.8533 14.9184 54.36C10.5184 51.8667 7.03507 48.4567 4.4684 44.13C1.90173 39.73 0.618399 34.8533 0.618399 29.5C0.618399 24.1467 1.90173 19.3067 4.4684 14.98C7.03507 10.58 10.5184 7.13333 14.9184 4.64C19.3917 2.14666 24.4151 0.899994 29.9884 0.899994C35.4884 0.899994 40.4751 2.14666 44.9484 4.64C49.4217 7.13333 52.9417 10.58 55.5084 14.98C58.0751 19.3067 59.3584 24.1467 59.3584 29.5C59.3584 34.8533 58.0751 39.73 55.5084 44.13C52.9417 48.4567 49.4217 51.8667 44.9484 54.36C40.4751 56.8533 35.4884 58.1 29.9884 58.1ZM29.9884 50.07C33.9484 50.07 37.5051 49.19 40.6584 47.43C43.8851 45.5967 46.3784 43.14 48.1384 40.06C49.9717 36.9067 50.8884 33.3867 50.8884 29.5C50.8884 25.6133 49.9717 22.13 48.1384 19.05C46.3784 15.8967 43.8851 13.44 40.6584 11.68C37.5051 9.84667 33.9484 8.93 29.9884 8.93C26.0284 8.93 22.4351 9.84667 19.2084 11.68C16.0551 13.44 13.5617 15.8967 11.7284 19.05C9.9684 22.13 9.0884 25.6133 9.0884 29.5C9.0884 33.3867 9.9684 36.9067 11.7284 40.06C13.5617 43.14 16.0551 45.5967 19.2084 47.43C22.4351 49.19 26.0284 50.07 29.9884 50.07Z" fill="white"/>
</svg>
