<svg width="54" height="52" viewBox="0 0 54 52" fill="none" xmlns="http://www.w3.org/2000/svg">
<path d="M26.9895 52C21.9228 52 17.3561 50.8667 13.2895 48.6C9.28945 46.3333 6.12279 43.2333 3.78945 39.3C1.45612 35.3 0.289453 30.8667 0.289453 26C0.289453 21.1333 1.45612 16.7333 3.78945 12.8C6.12279 8.8 9.28945 5.66666 13.2895 3.4C17.3561 1.13333 21.9228 -5.00679e-06 26.9895 -5.00679e-06C31.9895 -5.00679e-06 36.5228 1.13333 40.5895 3.4C44.6561 5.66666 47.8561 8.8 50.1895 12.8C52.5228 16.7333 53.6895 21.1333 53.6895 26C53.6895 30.8667 52.5228 35.3 50.1895 39.3C47.8561 43.2333 44.6561 46.3333 40.5895 48.6C36.5228 50.8667 31.9895 52 26.9895 52ZM26.9895 44.7C30.5895 44.7 33.8228 43.9 36.6895 42.3C39.6228 40.6333 41.8895 38.4 43.4895 35.6C45.1561 32.7333 45.9895 29.5333 45.9895 26C45.9895 22.4667 45.1561 19.3 43.4895 16.5C41.8895 13.6333 39.6228 11.4 36.6895 9.8C33.8228 8.13333 30.5895 7.3 26.9895 7.3C23.3895 7.3 20.1228 8.13333 17.1895 9.8C14.3228 11.4 12.0561 13.6333 10.3895 16.5C8.78945 19.3 7.98945 22.4667 7.98945 26C7.98945 29.5333 8.78945 32.7333 10.3895 35.6C12.0561 38.4 14.3228 40.6333 17.1895 42.3C20.1228 43.9 23.3895 44.7 26.9895 44.7Z" fill="#AC59FF"/>
</svg>

