<svg width="400" height="304" viewBox="0 0 400 304" fill="none" xmlns="http://www.w3.org/2000/svg">
<path d="M190.68 169.67C190.589 170.581 190.133 172.04 189.312 174.045C188.538 176.05 187.512 178.443 186.236 181.223C185.006 183.957 183.548 186.988 181.861 190.314C180.175 193.641 178.375 197.082 176.461 200.637C174.547 204.191 172.564 207.792 170.514 211.438C168.463 215.083 166.412 218.592 164.361 221.965C160.943 227.616 157.617 232.766 154.381 237.414C151.191 242.062 148.274 245.959 145.631 249.104C145.995 249.787 146.178 250.471 146.178 251.154C146.178 252.202 145.722 253.137 144.811 253.957C143.945 254.777 142.783 255.461 141.324 256.008C139.911 256.555 138.294 256.965 136.471 257.238C134.648 257.557 132.779 257.717 130.865 257.717C129.407 257.717 128.29 257.375 127.516 256.691C126.786 256.053 126.422 255.21 126.422 254.162C126.422 252.886 126.718 251.838 127.311 251.018C127.949 250.197 128.701 249.605 129.566 249.24C129.43 248.283 129.202 246.848 128.883 244.934C128.564 243.02 128.222 240.809 127.857 238.303C127.493 235.796 127.105 233.085 126.695 230.168C126.285 227.251 125.898 224.312 125.533 221.35C125.169 218.387 124.827 215.493 124.508 212.668C124.189 209.797 123.961 207.199 123.824 204.875C123.596 201.594 123.414 198.495 123.277 195.578C123.141 192.661 123.072 189.904 123.072 187.307C123.072 184.846 123.141 182.59 123.277 180.539C123.414 178.443 123.596 176.597 123.824 175.002C124.098 173.361 124.645 171.789 125.465 170.285C126.331 168.736 127.333 167.368 128.473 166.184C129.658 164.953 130.934 163.996 132.301 163.312C133.668 162.583 135.012 162.219 136.334 162.219C137.838 162.219 138.886 162.857 139.479 164.133C140.117 165.363 140.436 167.118 140.436 169.396C140.436 170.855 140.322 172.518 140.094 174.387C139.866 176.21 139.615 177.941 139.342 179.582C139.068 181.314 138.84 182.727 138.658 183.82L138.316 185.393C138.18 186.213 138.089 187.193 138.043 188.332C137.997 189.426 137.975 190.679 137.975 192.092C137.975 195.008 138.089 198.358 138.316 202.141C138.544 205.923 138.84 209.797 139.205 213.762C139.57 217.681 139.98 221.509 140.436 225.246C140.937 228.983 141.438 232.264 141.939 235.09C145.084 230.988 148.274 226.385 151.51 221.281C154.745 216.132 157.73 210.777 160.465 205.217C162.789 200.614 165.068 195.897 167.301 191.066C169.579 186.236 171.881 181.519 174.205 176.916C178.398 169.214 182.226 165.363 185.689 165.363C187.148 165.363 188.355 165.591 189.312 166.047C190.27 166.503 190.748 167.391 190.748 168.713C190.748 169.123 190.725 169.442 190.68 169.67ZM206.061 212.668C205.833 212.622 205.628 212.6 205.445 212.6C205.263 212.6 205.058 212.6 204.83 212.6C203.098 212.6 201.48 212.941 199.977 213.625C198.473 214.309 197.083 215.22 195.807 216.359C194.576 217.453 193.46 218.706 192.457 220.119C191.5 221.532 190.634 222.945 189.859 224.357C189.085 225.725 188.424 227.046 187.877 228.322C187.376 229.598 186.988 230.669 186.715 231.535C188.31 230.715 189.951 229.781 191.637 228.732C193.368 227.684 194.986 226.682 196.49 225.725C197.994 224.768 199.293 223.902 200.387 223.127C201.526 222.352 202.324 221.828 202.779 221.555C204.83 220.279 206.243 219.094 207.018 218C207.792 216.861 208.18 215.881 208.18 215.061C208.18 214.377 207.952 213.83 207.496 213.42C207.086 213.01 206.607 212.759 206.061 212.668ZM208.521 203.234C212.304 203.234 215.13 204.146 216.998 205.969C218.867 207.792 219.801 210.321 219.801 213.557C219.801 215.471 219.299 217.476 218.297 219.572C217.294 221.669 215.562 223.811 213.102 225.998C210.641 228.14 207.337 230.35 203.189 232.629C199.088 234.862 193.938 237.118 187.74 239.396C187.968 240.718 188.674 241.766 189.859 242.541C191.044 243.27 192.617 243.635 194.576 243.635C196.673 243.635 198.906 243.339 201.275 242.746C203.691 242.108 206.061 241.311 208.385 240.354C210.755 239.396 213.056 238.371 215.289 237.277C217.522 236.138 219.527 235.067 221.305 234.064C223.128 233.062 224.632 232.196 225.816 231.467C227.047 230.738 227.867 230.282 228.277 230.1C228.688 229.826 229.052 229.667 229.371 229.621C229.736 229.576 230.055 229.553 230.328 229.553C230.875 229.553 231.331 229.689 231.695 229.963C232.06 230.191 232.356 230.487 232.584 230.852C232.857 231.171 233.04 231.535 233.131 231.945C233.222 232.31 233.268 232.629 233.268 232.902C233.268 233.312 233.222 233.814 233.131 234.406C233.04 234.953 232.698 235.591 232.105 236.32C231.878 236.548 231.103 237.163 229.781 238.166C228.505 239.169 226.842 240.354 224.791 241.721C222.74 243.088 220.348 244.546 217.613 246.096C214.924 247.6 212.053 248.99 209 250.266C205.992 251.542 202.848 252.59 199.566 253.41C196.285 254.276 193.049 254.709 189.859 254.709C187.125 254.709 184.687 254.185 182.545 253.137C180.449 252.089 178.648 250.676 177.145 248.898C175.686 247.121 174.57 245.07 173.795 242.746C173.02 240.422 172.633 237.984 172.633 235.432C172.633 233.472 173.02 231.33 173.795 229.006C174.57 226.636 175.686 224.266 177.145 221.896C178.603 219.527 180.38 217.225 182.477 214.992C184.618 212.714 187.011 210.708 189.654 208.977C192.298 207.245 195.191 205.855 198.336 204.807C201.526 203.758 204.921 203.234 208.521 203.234ZM237.438 233.244C236.936 234.292 236.435 235.523 235.934 236.936C235.478 238.303 235.25 239.533 235.25 240.627C235.25 241.311 235.387 241.857 235.66 242.268C235.934 242.678 236.458 242.883 237.232 242.883C238.189 242.883 239.374 242.609 240.787 242.062C242.245 241.47 243.795 240.718 245.436 239.807C247.122 238.85 248.854 237.779 250.631 236.594C252.454 235.363 254.254 234.11 256.031 232.834C257.809 231.512 259.495 230.214 261.09 228.938C262.73 227.616 264.189 226.408 265.465 225.314C265.829 224.995 266.262 224.768 266.764 224.631C267.265 224.494 267.698 224.426 268.062 224.426C268.974 224.426 269.726 224.745 270.318 225.383C270.911 226.021 271.207 226.864 271.207 227.912C271.207 228.869 270.888 229.94 270.25 231.125C269.612 232.31 268.495 233.472 266.9 234.611C263.984 237.3 261.044 239.852 258.082 242.268C255.12 244.683 252.158 246.825 249.195 248.693C246.279 250.516 243.362 251.975 240.445 253.068C237.574 254.162 234.771 254.709 232.037 254.709C230.169 254.709 228.596 254.458 227.32 253.957C226.09 253.456 225.087 252.772 224.312 251.906C223.583 251.04 223.059 250.015 222.74 248.83C222.421 247.645 222.262 246.392 222.262 245.07C222.262 242.837 222.581 240.559 223.219 238.234C223.902 235.865 224.7 233.7 225.611 231.74C227.206 228.186 228.824 224.654 230.465 221.145C232.105 217.635 233.609 214.423 234.977 211.506L255.689 167.414C256.51 165.637 257.604 164.383 258.971 163.654C260.383 162.925 261.796 162.561 263.209 162.561C264.622 162.561 265.898 162.948 267.037 163.723C268.222 164.497 268.814 165.751 268.814 167.482C268.814 168.303 268.609 169.169 268.199 170.08C267.835 170.992 267.356 171.971 266.764 173.02C265.624 175.161 264.257 177.782 262.662 180.881C261.113 183.98 259.426 187.352 257.604 190.998C255.826 194.644 253.98 198.449 252.066 202.414C250.198 206.333 248.352 210.161 246.529 213.898C244.752 217.635 243.066 221.19 241.471 224.562C239.921 227.889 238.577 230.783 237.438 233.244ZM255.484 242.199C256.578 239.875 257.831 237.3 259.244 234.475C260.657 231.604 262.07 228.778 263.482 225.998C264.941 223.173 266.308 220.507 267.584 218C268.86 215.448 269.931 213.283 270.797 211.506L293.355 167.141C293.629 166.548 294.039 165.979 294.586 165.432C295.178 164.885 295.839 164.406 296.568 163.996C297.298 163.54 298.072 163.199 298.893 162.971C299.713 162.697 300.533 162.561 301.354 162.561C303.359 162.561 304.749 162.948 305.523 163.723C306.298 164.452 306.686 165.363 306.686 166.457C306.686 167.46 306.435 168.531 305.934 169.67C305.432 170.764 304.863 171.789 304.225 172.746C302.219 176.164 300.283 179.628 298.414 183.137C296.591 186.6 294.745 190.109 292.877 193.664C291.054 197.173 289.208 200.682 287.34 204.191C285.471 207.655 283.512 211.096 281.461 214.514C282.737 213.283 284.081 212.007 285.494 210.686C286.952 209.364 288.525 208.156 290.211 207.062C291.897 205.969 293.743 205.08 295.748 204.396C297.753 203.667 299.986 203.303 302.447 203.303C303.906 203.303 305.296 203.439 306.617 203.713C307.939 203.986 309.101 204.442 310.104 205.08C311.106 205.673 311.904 206.516 312.496 207.609C313.089 208.658 313.385 209.956 313.385 211.506C313.385 213.557 313.066 215.448 312.428 217.18C311.835 218.866 311.061 220.484 310.104 222.033C309.146 223.537 308.098 224.995 306.959 226.408C305.82 227.775 304.726 229.188 303.678 230.646C302.675 232.059 301.786 233.54 301.012 235.09C300.283 236.639 299.827 238.326 299.645 240.148C299.645 240.24 299.622 240.331 299.576 240.422C299.576 240.513 299.576 240.604 299.576 240.695C299.576 241.607 299.872 242.176 300.465 242.404C301.103 242.632 301.9 242.746 302.857 242.746C304.088 242.746 305.41 242.518 306.822 242.062C308.235 241.561 309.648 240.923 311.061 240.148C312.519 239.328 313.954 238.417 315.367 237.414C316.826 236.411 318.193 235.386 319.469 234.338C320.79 233.29 321.998 232.287 323.092 231.33C324.186 230.327 325.12 229.462 325.895 228.732C326.305 228.368 326.738 228.094 327.193 227.912C327.649 227.73 328.082 227.639 328.492 227.639C329.312 227.639 329.996 227.958 330.543 228.596C331.135 229.188 331.432 230.008 331.432 231.057C331.432 232.014 331.09 233.107 330.406 234.338C329.768 235.568 328.652 236.799 327.057 238.029C324.55 240.217 321.998 242.313 319.4 244.318C316.803 246.324 314.182 248.101 311.539 249.65C308.896 251.2 306.253 252.43 303.609 253.342C301.012 254.253 298.46 254.709 295.953 254.709C292.717 254.709 290.12 253.98 288.16 252.521C286.201 251.018 285.221 248.671 285.221 245.48C285.221 243.156 285.608 240.969 286.383 238.918C287.203 236.822 288.183 234.816 289.322 232.902C290.507 230.943 291.76 229.074 293.082 227.297C294.404 225.474 295.566 223.697 296.568 221.965C297.115 221.19 297.525 220.484 297.799 219.846C298.118 219.162 298.277 218.433 298.277 217.658C298.277 216.975 298.095 216.428 297.73 216.018C297.366 215.562 296.796 215.334 296.021 215.334C293.333 215.334 290.849 215.995 288.57 217.316C286.292 218.638 284.195 220.324 282.281 222.375C280.367 224.426 278.59 226.682 276.949 229.143C275.309 231.558 273.782 233.882 272.369 236.115C271.731 237.118 271.07 238.28 270.387 239.602C269.749 240.878 269.065 242.199 268.336 243.566C267.652 244.934 266.923 246.301 266.148 247.668C265.374 248.99 264.553 250.174 263.688 251.223C262.867 252.271 261.979 253.114 261.021 253.752C260.11 254.39 259.153 254.709 258.15 254.709C256.555 254.709 255.325 254.23 254.459 253.273C253.593 252.362 253.16 251.2 253.16 249.787C253.16 248.739 253.342 247.645 253.707 246.506C254.072 245.321 254.664 243.885 255.484 242.199ZM350.436 215.676C348.294 215.676 346.22 216.223 344.215 217.316C342.21 218.41 340.432 219.846 338.883 221.623C337.333 223.4 336.103 225.406 335.191 227.639C334.28 229.826 333.824 232.036 333.824 234.27C333.824 235.181 333.87 236.138 333.961 237.141C334.098 238.098 334.371 238.986 334.781 239.807C335.191 240.627 335.761 241.311 336.49 241.857C337.265 242.404 338.29 242.678 339.566 242.678C340.569 242.678 341.731 242.245 343.053 241.379C344.42 240.467 345.81 239.328 347.223 237.961C348.681 236.548 350.094 235.021 351.461 233.381C352.828 231.695 354.059 230.054 355.152 228.459C356.246 226.864 357.135 225.428 357.818 224.152C358.502 222.876 358.844 221.942 358.844 221.35C358.844 220.484 358.548 219.709 357.955 219.025C357.363 218.296 356.633 217.681 355.768 217.18C354.902 216.678 353.967 216.314 352.965 216.086C352.008 215.812 351.165 215.676 350.436 215.676ZM397.809 233.312C396.988 234.087 395.895 235.158 394.527 236.525C393.16 237.893 391.588 239.374 389.811 240.969C388.079 242.564 386.21 244.182 384.205 245.822C382.245 247.417 380.217 248.876 378.121 250.197C376.07 251.519 374.042 252.59 372.037 253.41C370.032 254.276 368.141 254.709 366.363 254.709C364.768 254.709 363.401 254.367 362.262 253.684C361.122 253 360.165 252.111 359.391 251.018C358.661 249.924 358.115 248.693 357.75 247.326C357.385 245.913 357.203 244.478 357.203 243.02C357.203 242.062 357.271 241.128 357.408 240.217C357.545 239.26 357.773 238.371 358.092 237.551C356.679 239.465 355.061 241.447 353.238 243.498C351.461 245.503 349.524 247.349 347.428 249.035C345.377 250.676 343.212 252.02 340.934 253.068C338.701 254.162 336.422 254.709 334.098 254.709C332.913 254.709 331.523 254.458 329.928 253.957C328.378 253.501 326.897 252.727 325.484 251.633C324.072 250.539 322.887 249.126 321.93 247.395C320.973 245.663 320.494 243.544 320.494 241.037C320.494 239.169 320.768 236.936 321.314 234.338C321.907 231.74 322.773 229.051 323.912 226.271C325.097 223.446 326.578 220.666 328.355 217.932C330.178 215.197 332.32 212.759 334.781 210.617C337.242 208.43 340.045 206.675 343.189 205.354C346.334 203.986 349.843 203.303 353.717 203.303C355.722 203.303 357.477 203.553 358.98 204.055C360.484 204.556 361.76 205.103 362.809 205.695C363.993 206.424 365.042 207.222 365.953 208.088C366.728 207.678 367.525 207.29 368.346 206.926C369.029 206.607 369.736 206.333 370.465 206.105C371.24 205.832 371.9 205.695 372.447 205.695C374.179 205.695 375.592 206.174 376.686 207.131C377.779 208.088 378.326 209.136 378.326 210.275C378.326 210.594 378.303 210.845 378.258 211.027C378.03 211.893 377.665 212.987 377.164 214.309C376.708 215.63 376.184 217.111 375.592 218.752C374.999 220.347 374.384 222.033 373.746 223.811C373.154 225.542 372.607 227.251 372.105 228.938C371.604 230.624 371.194 232.219 370.875 233.723C370.556 235.181 370.396 236.434 370.396 237.482C370.396 238.85 370.624 239.989 371.08 240.9C371.536 241.766 372.311 242.199 373.404 242.199C374.088 242.199 374.885 241.994 375.797 241.584C376.754 241.128 377.779 240.536 378.873 239.807C379.967 239.077 381.083 238.257 382.223 237.346C383.408 236.389 384.547 235.432 385.641 234.475C388.193 232.196 390.904 229.598 393.775 226.682C394.505 226.089 395.211 225.793 395.895 225.793C396.806 225.793 397.558 226.249 398.15 227.16C398.788 228.026 399.107 229.006 399.107 230.1C399.107 231.376 398.674 232.447 397.809 233.312Z" fill="white"/>
<path d="M63.873 79.4082C63.0983 80.821 62.0729 82.6895 60.7969 85.0137C59.5664 87.3379 58.1309 89.9355 56.4902 92.8066C54.8952 95.6777 53.1406 98.7767 51.2266 102.104C49.3581 105.385 47.3984 108.689 45.3477 112.016C43.3424 115.342 41.2689 118.624 39.127 121.859C37.0306 125.049 34.9798 128.012 32.9746 130.746C37.8965 130.245 42.6361 128.992 47.1934 126.986C51.7507 124.981 56.0117 122.497 59.9766 119.535C63.987 116.527 67.6328 113.178 70.9141 109.486C74.2409 105.749 77.0664 101.898 79.3906 97.9336C81.7604 93.9232 83.5833 89.9128 84.8594 85.9023C86.181 81.8919 86.8418 78.1094 86.8418 74.5547C86.8418 71.5469 86.4544 68.7669 85.6797 66.2148C84.9505 63.6628 83.8112 61.4525 82.2617 59.584C80.7578 57.7155 78.821 56.2572 76.4512 55.209C74.0814 54.1608 71.3014 53.6367 68.1113 53.6367C65.1491 53.6367 62.1641 53.9329 59.1562 54.5254C56.194 55.0723 53.3457 55.8242 50.6113 56.7812C47.877 57.7383 45.3477 58.8776 43.0234 60.1992C40.7448 61.4753 38.7852 62.8652 37.1445 64.3691C35.3216 66.3743 33.7038 68.3796 32.291 70.3848C30.9238 72.39 29.5566 74.1901 28.1895 75.7852C26.8678 77.3802 25.4323 78.679 23.8828 79.6816C22.3333 80.6842 20.5104 81.1855 18.4141 81.1855C14.4948 81.1855 12.5352 79.4538 12.5352 75.9902C12.5352 73.8027 13.2415 71.4557 14.6543 68.9492C16.0671 66.3971 18.0267 63.8906 20.5332 61.4297C23.0853 58.9232 26.0931 56.5306 29.5566 54.252C33.0658 51.9277 36.9167 49.8997 41.1094 48.168C45.3021 46.3906 49.7682 44.9779 54.5078 43.9297C59.2474 42.8815 64.1237 42.3574 69.1367 42.3574C74.9701 42.3574 80.0514 43.2233 84.3809 44.9551C88.7103 46.6868 92.2878 49.0794 95.1133 52.1328C97.9844 55.1406 100.104 58.6953 101.471 62.7969C102.883 66.8984 103.59 71.319 103.59 76.0586C103.59 80.7982 102.77 85.7656 101.129 90.9609C99.5339 96.1562 97.1641 101.26 94.0195 106.273C90.9206 111.286 87.0697 116.049 82.4668 120.561C77.9095 125.072 72.6458 129.037 66.6758 132.455C60.7513 135.873 54.166 138.585 46.9199 140.59C39.7194 142.595 31.9264 143.598 23.541 143.598C21.7181 143.598 20.2826 143.005 19.2344 141.82C18.1862 140.681 17.6621 139.268 17.6621 137.582C17.6621 136.26 17.89 134.984 18.3457 133.754C18.8014 132.523 19.3939 131.384 20.123 130.336L48.2188 74.4863C49.5404 72.4355 50.8392 70.7949 52.1152 69.5645C53.4368 68.334 54.6445 67.377 55.7383 66.6934C56.8776 66.0098 57.8802 65.5768 58.7461 65.3945C59.612 65.1667 60.2728 65.0527 60.7285 65.0527C62.7793 65.0527 64.2376 65.6452 65.1035 66.8301C65.9694 68.015 66.4023 69.4277 66.4023 71.0684C66.4023 72.39 66.1745 73.7799 65.7188 75.2383C65.263 76.6966 64.6478 78.0866 63.873 79.4082ZM131.412 100.668C131.184 100.622 130.979 100.6 130.797 100.6C130.615 100.6 130.41 100.6 130.182 100.6C128.45 100.6 126.832 100.941 125.328 101.625C123.824 102.309 122.434 103.22 121.158 104.359C119.928 105.453 118.811 106.706 117.809 108.119C116.852 109.532 115.986 110.945 115.211 112.357C114.436 113.725 113.775 115.046 113.229 116.322C112.727 117.598 112.34 118.669 112.066 119.535C113.661 118.715 115.302 117.781 116.988 116.732C118.72 115.684 120.338 114.682 121.842 113.725C123.346 112.768 124.645 111.902 125.738 111.127C126.878 110.352 127.675 109.828 128.131 109.555C130.182 108.279 131.594 107.094 132.369 106C133.144 104.861 133.531 103.881 133.531 103.061C133.531 102.377 133.303 101.83 132.848 101.42C132.438 101.01 131.959 100.759 131.412 100.668ZM133.873 91.2344C137.656 91.2344 140.481 92.1458 142.35 93.9688C144.218 95.7917 145.152 98.321 145.152 101.557C145.152 103.471 144.651 105.476 143.648 107.572C142.646 109.669 140.914 111.811 138.453 113.998C135.992 116.14 132.688 118.35 128.541 120.629C124.439 122.862 119.29 125.118 113.092 127.396C113.32 128.718 114.026 129.766 115.211 130.541C116.396 131.27 117.968 131.635 119.928 131.635C122.024 131.635 124.257 131.339 126.627 130.746C129.042 130.108 131.412 129.311 133.736 128.354C136.106 127.396 138.408 126.371 140.641 125.277C142.874 124.138 144.879 123.067 146.656 122.064C148.479 121.062 149.983 120.196 151.168 119.467C152.398 118.738 153.219 118.282 153.629 118.1C154.039 117.826 154.404 117.667 154.723 117.621C155.087 117.576 155.406 117.553 155.68 117.553C156.227 117.553 156.682 117.689 157.047 117.963C157.411 118.191 157.708 118.487 157.936 118.852C158.209 119.171 158.391 119.535 158.482 119.945C158.574 120.31 158.619 120.629 158.619 120.902C158.619 121.312 158.574 121.814 158.482 122.406C158.391 122.953 158.049 123.591 157.457 124.32C157.229 124.548 156.454 125.163 155.133 126.166C153.857 127.169 152.193 128.354 150.143 129.721C148.092 131.088 145.699 132.546 142.965 134.096C140.276 135.6 137.405 136.99 134.352 138.266C131.344 139.542 128.199 140.59 124.918 141.41C121.637 142.276 118.401 142.709 115.211 142.709C112.477 142.709 110.038 142.185 107.896 141.137C105.8 140.089 104 138.676 102.496 136.898C101.038 135.121 99.9212 133.07 99.1465 130.746C98.3717 128.422 97.9844 125.984 97.9844 123.432C97.9844 121.472 98.3717 119.33 99.1465 117.006C99.9212 114.636 101.038 112.266 102.496 109.896C103.954 107.527 105.732 105.225 107.828 102.992C109.97 100.714 112.363 98.7083 115.006 96.9766C117.649 95.2448 120.543 93.8548 123.688 92.8066C126.878 91.7585 130.273 91.2344 133.873 91.2344ZM224.107 124.662C222.102 126.941 219.755 129.174 217.066 131.361C214.423 133.503 211.689 135.417 208.863 137.104C206.038 138.79 203.258 140.134 200.523 141.137C197.789 142.185 195.328 142.709 193.141 142.709C190.953 142.709 189.176 142.094 187.809 140.863C186.441 139.633 185.758 137.536 185.758 134.574C185.758 132.478 186.122 130.04 186.852 127.26C185.667 129.037 184.186 130.837 182.408 132.66C180.631 134.483 178.603 136.146 176.324 137.65C174.046 139.154 171.493 140.362 168.668 141.273C165.842 142.23 162.766 142.709 159.439 142.709C157.936 142.709 156.477 142.549 155.064 142.23C153.697 141.911 152.49 141.365 151.441 140.59C150.393 139.815 149.55 138.79 148.912 137.514C148.274 136.192 147.955 134.551 147.955 132.592C147.955 132.546 148.046 131.863 148.229 130.541C148.411 129.174 148.98 127.055 149.938 124.184C150.94 121.267 152.467 117.507 154.518 112.904C156.568 108.301 159.462 102.719 163.199 96.1562C164.156 94.4245 165.25 93.194 166.48 92.4648C167.757 91.6901 169.124 91.3027 170.582 91.3027C171.22 91.3027 171.881 91.3939 172.564 91.5762C173.248 91.7129 173.886 91.9635 174.479 92.3281C175.071 92.6471 175.549 93.0801 175.914 93.627C176.279 94.1283 176.461 94.7207 176.461 95.4043C176.461 95.86 176.393 96.293 176.256 96.7031C176.028 97.4779 175.527 98.5033 174.752 99.7793C174.023 101.01 173.157 102.445 172.154 104.086C171.152 105.681 170.081 107.413 168.941 109.281C167.848 111.15 166.822 113.087 165.865 115.092C164.908 117.097 164.088 119.148 163.404 121.244C162.721 123.295 162.333 125.3 162.242 127.26C162.242 128.08 162.47 128.832 162.926 129.516C163.382 130.199 164.133 130.541 165.182 130.541C168.144 130.541 170.969 129.721 173.658 128.08C176.347 126.439 178.831 124.411 181.109 121.996C183.388 119.535 185.439 116.915 187.262 114.135C189.13 111.309 190.68 108.734 191.91 106.41C192.776 104.861 193.528 103.197 194.166 101.42C194.85 99.6426 195.579 98.002 196.354 96.498C197.128 94.9941 198.017 93.7409 199.02 92.7383C200.022 91.7357 201.275 91.2344 202.779 91.2344C204.42 91.2344 205.719 91.7585 206.676 92.8066C207.633 93.8548 208.111 95.1081 208.111 96.5664C208.111 97.3867 207.792 98.526 207.154 99.9844C206.562 101.397 205.787 103.038 204.83 104.906C203.919 106.729 202.916 108.689 201.822 110.785C200.729 112.882 199.703 115.023 198.746 117.211C197.835 119.353 197.06 121.472 196.422 123.568C195.829 125.619 195.533 127.533 195.533 129.311C195.533 130.951 196.536 131.771 198.541 131.771C199.954 131.771 201.708 131.361 203.805 130.541C205.901 129.721 208.089 128.581 210.367 127.123C212.691 125.619 214.993 123.865 217.271 121.859C219.596 119.854 221.646 117.689 223.424 115.365L224.107 124.662Z" fill="white"/>
</svg>

